<?xml version="1.0" encoding="UTF-8" standalone="no"?>
<svg width="106px" height="103px" viewBox="0 0 106 103" version="1.1" xmlns="http://www.w3.org/2000/svg" xmlns:xlink="http://www.w3.org/1999/xlink">
    <!-- Generator: Sketch 3.8.3 (29802) - http://www.bohemiancoding.com/sketch -->
    <title>catex-mark-dark</title>
    <desc>Created with Sketch.</desc>
    <defs>
        <polygon id="path-1" points="52.540334 102.354403 0.0517745028 102.354403 0.0517745028 0.24162351 52.540334 0.24162351 105.028894 0.24162351 105.028894 102.354403 52.540334 102.354403"></polygon>
    </defs>
    <g id="Emails" stroke="none" stroke-width="1" fill="none" fill-rule="evenodd">
        <g id="catex-mark-dark" transform="translate(0.445312, -0.177202)">
            <g id="favicon">
                <mask id="mask-2" fill="white">
                    <use xlink:href="#path-1"></use>
                </mask>
                <g id="Clip-2"></g>
                <path d="M53.4856502,49.9833467 C50.388672,50.2769863 46.1854453,51.282073 46.1604209,54.3535441 L46.1673242,54.4315684 L46.1673242,54.6245316 C46.1673242,58.1087761 49.9399596,59.9268253 53.4856502,60.7389487 L53.4856502,49.9833467 L53.4856502,49.9833467 Z M53.4856502,27.3873536 L43.3412992,27.3873536 C38.0741065,27.3873536 32.1036434,28.4796933 29.3173122,33.3281039 C28.3068465,35.0949758 27.6035762,37.7620631 27.7545852,39.8099901 L27.7735691,40.0113431 L27.7735691,102.354403 L53.4856502,102.354403 L53.4856502,70.9265677 C44.7271301,69.5900877 35.9919086,64.3381322 35.8883596,54.7940036 C35.7416651,52.1034252 36.8013166,49.0739026 38.3433339,46.9068418 C41.8070481,42.0450076 47.7015753,40.2731019 53.4856502,39.9425475 L53.4856502,27.3873536 L53.4856502,27.3873536 Z M14.1059633,0.24162351 L53.4856502,0.24162351 L53.4856502,17.388503 L43.3412992,17.388503 C33.85017,17.388503 24.6403488,20.3861447 20.04191,29.0074057 C18.3178191,32.2349253 17.2176109,36.7250955 17.4963303,40.4383791 L17.4963303,102.354403 L14.1059633,102.354403 C6.34582823,102.354403 0,96.1837752 0,88.6380744 L0,13.9587915 C0,6.41141271 6.34582823,0.24162351 14.1059633,0.24162351 L14.1059633,0.24162351 Z M53.4856502,60.7389487 C54.7368673,61.0241987 55.9630601,61.1844421 56.9804291,61.244009 C60.6184508,61.2347803 64.3531183,60.7204914 67.6347589,59.2833349 C72.8519029,57.7647982 75.3690067,52.0992303 75.3690067,52.0992303 C77.8127632,47.072119 76.8281848,41.1825459 74.1842335,36.1050963 C71.033755,30.0494071 63.8336475,26.7354736 56.9752517,27.3596676 L56.7198308,27.3873536 L53.4856502,27.3873536 L53.4856502,39.9425475 C54.2018641,39.9014379 54.918941,39.8829806 55.6273888,39.8829806 C61.4045604,39.8099901 67.0445295,42.2933429 71.1096909,46.2641903 C69.7877153,50.3088672 66.7261164,52.6319766 64.3721023,53.871136 C62.2070652,51.452384 58.9892798,49.9002886 55.6929698,49.8726025 C55.1174099,49.8726025 54.3459698,49.9002886 53.4856502,49.9833467 L53.4856502,60.7389487 L53.4856502,60.7389487 Z M53.4856502,102.354403 L79.2356991,102.354403 C77.5176486,94.1090011 74.7408094,77.8438797 71.4591688,68.5665437 C66.9452951,70.4575832 61.9214425,71.2386648 56.8337347,71.2386648 L56.708613,71.2386648 L56.5834912,71.2336309 C55.559219,71.1832927 54.5220031,71.0817773 53.4856502,70.9265677 L53.4856502,102.354403 L53.4856502,102.354403 Z M53.4856502,0.24162351 L90.9203415,0.24162351 C98.6804766,0.24162351 105.028894,6.41141271 105.028894,13.9587915 L105.028894,88.6380744 C105.028894,96.1837752 98.6804766,102.354403 90.9203415,102.354403 L89.7347054,102.354403 L89.6121724,101.799005 C87.6412897,92.8832652 84.2957939,73.5198256 80.1969791,62.6853603 C80.4256498,62.4470927 80.650006,62.2130199 80.8717734,61.9646846 C88.7380462,53.2427471 88.5283595,41.5357525 83.3586754,31.5922739 C78.3814199,22.0204592 67.1126993,16.3825773 56.1917308,17.388503 L53.4856502,17.388503 L53.4856502,0.24162351 L53.4856502,0.24162351 Z" id="Fill-1" fill="#00D1C1" mask="url(#mask-2)"></path>
            </g>
        </g>
    </g>
</svg>